<svg width="31" height="30" viewBox="0 0 31 30" fill="none" xmlns="http://www.w3.org/2000/svg">
<path d="M15.0046 17.9596L11.2471 23.4413C11.2912 24.8354 10.8367 26.1982 9.96833 27.2751C9.09997 28.3521 7.87717 29.0696 6.52836 29.2936C5.17955 29.5176 3.79697 29.2328 2.63888 28.4923C1.48079 27.7519 0.626394 26.6065 0.235292 25.27C-0.15581 23.9336 -0.0568712 22.4975 0.513627 21.2301C1.08413 19.9627 2.08717 18.9506 3.33538 18.3828C4.5836 17.8151 5.99163 17.7306 7.29646 18.145C8.60128 18.5595 9.71366 19.4446 10.4258 20.635L13.6298 15.9571L3.92331 1.80841C3.75205 1.5587 3.68499 1.24977 3.73689 0.949589C3.78879 0.649409 3.9554 0.382567 4.20006 0.207765C4.44473 0.0329632 4.7474 -0.0354796 5.0415 0.0174934C5.33561 0.0704664 5.59705 0.240516 5.76831 0.490233L19.5856 20.6327C20.2977 19.4423 21.4101 18.5572 22.7149 18.1427C24.0197 17.7283 25.4278 17.8128 26.676 18.3805C27.9242 18.9483 28.9273 19.9604 29.4977 21.2278C30.0682 22.4952 30.1672 23.9313 29.7761 25.2677C29.385 26.6042 28.5306 27.7496 27.3725 28.49C26.2144 29.2305 24.8318 29.5153 23.483 29.2913C22.1342 29.0673 20.9114 28.3498 20.043 27.2728C19.1747 26.1959 18.7201 24.8331 18.7643 23.439L15.0068 17.9596H15.0046ZM16.9171 11.1689L24.2431 0.490233C24.4143 0.240516 24.6758 0.0704664 24.9699 0.0174934C25.264 -0.0354796 25.5667 0.0329632 25.8113 0.207765C26.056 0.382567 26.2226 0.649409 26.2745 0.949589C26.3264 1.24977 26.2593 1.5587 26.0881 1.80841L18.2918 13.1714L16.9193 11.1689H16.9171ZM3.68706 26.4497C4.04977 26.7157 4.4606 26.9056 4.89574 27.0084C5.33088 27.1111 5.78168 27.1247 6.222 27.0483C6.66233 26.972 7.08342 26.8071 7.46087 26.5634C7.83832 26.3197 8.16463 26.002 8.42087 25.6286C8.6771 25.2552 8.85818 24.8336 8.95361 24.3883C9.04903 23.9429 9.05691 23.4827 8.97677 23.0342C8.89663 22.5858 8.73007 22.158 8.48676 21.7757C8.24344 21.3934 7.9282 21.0642 7.55931 20.8072C6.8256 20.3082 5.9297 20.1221 5.06326 20.2886C4.19681 20.4552 3.42861 20.9612 2.92298 21.6984C2.41735 22.4356 2.21445 23.3455 2.35766 24.2334C2.50087 25.1213 2.97884 25.9168 3.68931 26.4497H3.68706ZM26.3221 26.4497C26.6963 26.1952 27.017 25.8668 27.2652 25.484C27.5133 25.1012 27.6841 24.6717 27.7673 24.2206C27.8505 23.7695 27.8446 23.3059 27.7498 22.8572C27.655 22.4085 27.4734 21.9836 27.2154 21.6076C26.9575 21.2315 26.6286 20.9119 26.2479 20.6674C25.8673 20.423 25.4426 20.2587 24.9988 20.1841C24.555 20.1095 24.1011 20.1263 23.6638 20.2333C23.2265 20.3403 22.8145 20.5354 22.4521 20.8072C21.7416 21.3401 21.2636 22.1356 21.1204 23.0235C20.9772 23.9115 21.1801 24.8214 21.6857 25.5586C22.1914 26.2958 22.9596 26.8018 23.826 26.9683C24.6925 27.1348 25.5884 26.9487 26.3221 26.4497Z" fill="white"/>
</svg>
