<svg width="36" height="36" viewBox="0 0 36 36" fill="none" xmlns="http://www.w3.org/2000/svg">
<g clip-path="url(#clip0_77_1230)">
<path d="M10.1602 0.625782C9.21099 0.871876 8.55005 1.65234 8.45864 2.64375C8.43052 2.93906 8.38833 3.08672 8.33911 3.06562C8.29693 3.04453 8.09302 2.98125 7.88208 2.91094C6.89068 2.60859 5.75865 3.12188 5.27349 4.11328L5.09771 4.46484L5.06255 8.14922L5.02739 11.8406L4.7813 11.6227C3.97271 10.9195 2.60864 10.5328 1.77896 10.7648C1.31489 10.8914 0.766457 11.4398 0.632864 11.9039C0.527395 12.2836 0.55552 13.6125 0.738332 16.9805C0.857864 19.1039 0.935207 19.8422 1.13911 20.7984C1.53286 22.6547 2.49614 24.7641 3.62818 26.2406L3.93755 26.6344V31.0359V35.4375H10.6876H17.4375V31.0219V26.6133L17.6907 26.1984C18.6047 24.6797 19.3149 22.6617 19.5469 20.8969C19.5961 20.5453 19.6665 20.25 19.6946 20.25C19.7297 20.25 19.7579 20.2922 19.7579 20.3484C19.7579 20.3977 19.8704 20.6648 20.004 20.932C20.3063 21.5367 20.7282 21.9445 21.361 22.2398L21.8321 22.4648H27.0352C31.936 22.4648 32.2594 22.4578 32.625 22.3313C33.9329 21.8883 34.8258 20.9953 35.2688 19.6875C35.3954 19.3289 35.4024 19.0266 35.4024 15.2227V11.1445L35.1774 10.6734C34.868 10.0195 34.4743 9.61172 33.8344 9.29531C33.3282 9.04922 33.2649 9.03516 32.625 9.03516C31.9852 9.03516 31.9219 9.04922 31.4157 9.29531C30.7758 9.61172 30.3821 10.0195 30.0727 10.6734L29.8477 11.1445L29.8266 12.8813L29.7985 14.618L25.8188 14.6391L21.8321 14.6602L21.361 14.8852C20.7282 15.1805 20.3063 15.5883 20.004 16.193C19.8704 16.4602 19.7508 16.7344 19.7438 16.7977C19.7368 16.8609 19.7086 15.1242 19.6875 12.9375L19.6524 8.96484L19.4133 8.52188C18.8157 7.41797 17.6344 7.04531 16.404 7.56563C16.3477 7.59375 16.3196 7.19297 16.2985 6.03281C16.2774 4.48594 16.2704 4.45781 16.0876 4.10625C15.8063 3.57891 15.5954 3.35391 15.1313 3.10781C14.4704 2.75625 13.7883 2.74219 13.036 3.06562C12.9868 3.08672 12.9446 2.93203 12.9165 2.63672C12.811 1.49766 11.9602 0.660938 10.8422 0.597656C10.5821 0.583595 10.2797 0.590626 10.1602 0.625782ZM11.3063 1.87735C11.4047 1.94766 11.5524 2.10234 11.6297 2.20781C11.7774 2.39766 11.7774 2.46094 11.7985 9.07734L11.8126 15.75H12.3751H12.9376L12.9516 10.2023C12.9727 4.71797 12.9727 4.64766 13.1204 4.45781C13.3946 4.08516 13.6196 3.97266 14.0626 3.97266C14.5055 3.97266 14.7305 4.08516 15.0047 4.45781C15.1524 4.64766 15.1524 4.71797 15.1735 10.2023L15.1875 15.75H15.75H16.3055L16.3266 12.4523C16.3477 9.24609 16.3547 9.14766 16.4954 8.95781C16.7696 8.58516 16.9946 8.47266 17.4375 8.47266C17.8805 8.47266 18.1055 8.58516 18.3797 8.95781C18.5274 9.14766 18.5274 9.23906 18.5485 13.0148L18.5625 16.875H16.8258C15.279 16.875 15.0469 16.8961 14.7938 17.0086C14.0907 17.325 13.8586 18.1828 14.3016 18.8438C14.4563 19.0758 14.6602 19.2094 15.6094 19.6875L16.7415 20.25H17.6204H18.5063L18.4571 20.6227C18.2321 22.3453 17.529 24.3281 16.629 25.7766L16.3125 26.2828V30.2977V34.3125H13.0782C10.0126 34.3125 9.8438 34.3055 9.90708 34.1859C10.0196 33.975 10.4907 33.525 10.8211 33.3141C11.2219 33.068 11.4469 33.0047 12.4524 32.8711C13.4297 32.7445 13.9571 32.5125 14.4422 31.9922C15.5602 30.7969 15.3704 28.9336 14.0485 28.0336C13.4086 27.6047 12.5368 27.45 11.8547 27.6469C11.468 27.7594 10.8844 28.343 10.7719 28.7297C10.5751 29.3906 10.7157 29.918 11.2149 30.4102C11.6086 30.8109 11.9321 30.9375 12.5438 30.9375H12.9376V30.375V29.8125H12.5508C12.2274 29.8125 12.129 29.7844 11.9883 29.6367C11.7563 29.4047 11.7563 29.0883 11.9954 28.8492C12.1641 28.6805 12.2133 28.6734 12.6282 28.7086C13.1696 28.7508 13.5422 28.9617 13.8305 29.4047C13.9993 29.6508 14.0274 29.7703 14.0274 30.1641C14.0274 30.5648 13.9922 30.6844 13.8165 30.9797C13.5141 31.4648 13.1696 31.6406 12.2415 31.7531C11.8336 31.8094 11.2922 31.9148 11.0391 31.9922C10.1461 32.2594 9.27427 32.9906 8.80318 33.8766L8.57114 34.3125H7.72739H6.89068L7.06646 33.8414C7.44614 32.843 8.1563 31.8164 8.92271 31.1695L9.33755 30.825L9.02114 30.4031C8.8524 30.1781 8.68364 29.9813 8.65552 29.9672C8.55708 29.932 7.47427 30.9938 7.10161 31.4859C6.66568 32.0695 6.11724 33.1242 5.89927 33.8063L5.73755 34.3125H5.40005H5.06255V30.2836V26.2477L4.73911 25.8328C3.47349 24.2227 2.55943 22.2469 2.18677 20.3063C1.98989 19.2727 1.82818 17.0086 1.71568 13.5984L1.66646 12.1781L1.8563 11.9883C2.03911 11.8055 2.07427 11.7984 2.51724 11.8336C3.13599 11.8969 3.8813 12.2555 4.28208 12.6984C4.45083 12.8742 4.68286 13.2258 4.80239 13.4859L5.02739 13.957L5.04849 16.5375L5.06958 19.125H5.62505H6.18755L6.20161 11.8898C6.22271 4.70391 6.22271 4.64766 6.37036 4.45781C6.64458 4.08516 6.86958 3.97266 7.31255 3.97266C7.75552 3.97266 7.98052 4.08516 8.25474 4.45781C8.40239 4.64766 8.40239 4.71797 8.42349 10.2023L8.43755 15.75H9.00005H9.56255V9.18281C9.56255 4.69688 9.58364 2.54531 9.63989 2.41172C9.73833 2.15156 9.97036 1.90547 10.2305 1.78594C10.5118 1.65234 11.0672 1.70156 11.3063 1.87735ZM33.1454 10.2094C33.5321 10.3219 34.1157 10.9055 34.2282 11.2922C34.2844 11.4961 34.3125 12.2906 34.3125 13.9359V16.2844L33.8063 16.0383C33.3352 15.7992 33.2579 15.7852 32.625 15.7852C31.9922 15.7852 31.9149 15.7992 31.4438 16.0383L30.9375 16.2844V13.9359C30.9375 12.2906 30.9657 11.4961 31.0219 11.2922C31.1274 10.9336 31.718 10.3289 32.0625 10.2164C32.4 10.1109 32.8008 10.1109 33.1454 10.2094ZM23.0625 18.5625V21.375H22.6688C22.0571 21.375 21.7336 21.2484 21.3399 20.8477C20.8547 20.3695 20.8125 20.1867 20.8125 18.5625C20.8125 16.9383 20.8547 16.7625 21.3399 16.2773C21.7407 15.8695 22.0008 15.7641 22.6266 15.757L23.0625 15.75V18.5625ZM29.8125 17.2688C29.8125 19.0758 29.8477 19.2305 30.3399 19.7227C31.05 20.4398 31.9501 20.4398 32.6602 19.7227C33.061 19.3289 33.1875 19.0055 33.1875 18.3938V18H32.625H32.0625V18.3867C32.0625 18.7102 32.0344 18.8086 31.8868 18.9492C31.5352 19.3008 30.9375 19.0547 30.9375 18.5555C30.9375 17.6906 31.7602 16.875 32.625 16.875C33.3071 16.875 34.0594 17.4445 34.2352 18.0914C34.3758 18.5906 34.2915 19.2023 33.9961 19.8C33.7008 20.4047 33.279 20.8125 32.6391 21.1148L32.168 21.3398L28.1813 21.3609L24.1875 21.382V18.5625V15.75H27H29.8125V17.2688ZM19.6875 18.5625V19.125H18.3516H17.0157L16.1016 18.668C15.2297 18.232 15.1243 18.1547 15.2368 18.0492C15.2579 18.0211 16.2704 18 17.4868 18H19.6875V18.5625Z" fill="white"/>
<path d="M9.80156 17.5219C8.80313 18.5344 8.60625 18.8086 8.50078 19.343L8.42344 19.7438L8.09297 19.7859C7.58672 19.8563 7.13672 20.1656 6.20156 21.1078L5.34375 21.9797L6.27891 22.9008C7.24922 23.8641 7.72734 24.1875 8.19844 24.1875C8.40234 24.1875 8.42344 24.2086 8.45859 24.5039C8.53594 25.0594 8.80313 25.4461 9.76641 26.4023L10.6875 27.3164L11.5664 26.4375C12.4523 25.5586 12.8672 24.9609 12.8672 24.5672C12.8672 24.3773 13.043 24.1875 13.2117 24.1875C13.282 24.1875 13.493 24.1383 13.6828 24.068C13.9641 23.9766 14.2102 23.7797 15.0328 22.9641L16.0383 21.9797L15.3141 21.2484C14.3367 20.2641 13.8797 19.9266 13.3594 19.8141L12.9516 19.7297L12.8742 19.3359C12.832 19.125 12.7125 18.8227 12.6141 18.668C12.4383 18.4008 10.7648 16.6641 10.6875 16.6641C10.6664 16.6641 10.2656 17.0508 9.80156 17.5219ZM11.1938 18.7523C11.6719 19.2375 11.8125 19.4766 11.8125 19.807C11.8125 19.9477 11.7844 19.9758 11.693 19.9336C11.3555 19.793 10.9195 19.6875 10.6875 19.6875C10.4555 19.6875 10.0195 19.793 9.68906 19.9336C9.59063 19.9758 9.5625 19.9477 9.5625 19.807C9.5625 19.4766 9.70313 19.2375 10.1813 18.7523C10.4344 18.4922 10.6664 18.2812 10.6875 18.2812C10.7086 18.2812 10.9406 18.4922 11.1938 18.7523ZM11.1305 20.9109C11.8547 21.2133 12.0305 22.1555 11.468 22.718C11.0109 23.175 10.3641 23.175 9.90703 22.718C9.03516 21.8531 9.99844 20.4328 11.1305 20.9109ZM8.57109 21.2484C8.37422 21.8109 8.40938 22.282 8.68359 22.95C8.73984 23.0695 8.71172 23.0766 8.37422 23.0484C8.02266 23.0133 7.97344 22.9781 7.48125 22.493L6.96094 21.9797L7.43906 21.4945C7.95938 20.9602 8.07188 20.8969 8.44453 20.8898L8.69766 20.8828L8.57109 21.2484ZM13.3102 20.9813C13.4367 21.0375 13.732 21.2836 13.9711 21.5297L14.4141 21.9797L13.9008 22.4859C13.493 22.8938 13.3172 23.0133 13.0781 23.0695C12.9094 23.1047 12.7477 23.1117 12.7195 23.0836C12.6914 23.0555 12.7266 22.8516 12.7969 22.6406C12.9656 22.1555 12.9656 21.7266 12.8039 21.2484L12.6773 20.8828H12.8813C12.9938 20.8828 13.1836 20.925 13.3102 20.9813ZM10.118 24.0891C10.5328 24.2227 10.9266 24.2086 11.3766 24.0539C11.5805 23.9836 11.7633 23.9555 11.7844 23.9906C11.8055 24.0258 11.7984 24.1875 11.7773 24.3492C11.7352 24.5883 11.6297 24.743 11.1938 25.193L10.6594 25.7414L10.2164 25.2984C9.71719 24.8063 9.5625 24.532 9.5625 24.1523C9.5625 23.9344 9.58359 23.8992 9.68906 23.9414C9.75234 23.9695 9.94922 24.0398 10.118 24.0891Z" fill="white"/>
</g>
<defs>
<clipPath id="clip0_77_1230">
<rect width="36" height="36" fill="white"/>
</clipPath>
</defs>
</svg>
