<svg width="36" height="36" viewBox="0 0 36 36" fill="none" xmlns="http://www.w3.org/2000/svg">
<g clip-path="url(#clip0_77_1224)">
<path d="M35.8055 6.99791C35.4382 5.44707 34.556 3.91308 33.3213 2.67851C32.0776 1.43466 30.5942 0.578192 29.0318 0.201558C27.4557 -0.178416 25.9208 -0.0176295 24.7097 0.654105C24.3885 0.832322 23.851 1.13044 21.7354 5.98954C20.8813 7.95123 20.1076 9.88514 19.8979 10.4134L15.0957 15.5157C14.7765 15.2152 14.2739 15.2211 13.9617 15.5331C13.6437 15.8512 13.6437 16.3669 13.9617 16.6851L13.979 16.7023L0.855541 30.646C-0.311014 31.8857 -0.280796 33.8734 0.922902 35.077C1.53713 35.6913 2.3554 35.9998 3.1744 35.9998C3.96025 35.9998 4.74691 35.7155 5.35397 35.1443L19.2978 22.0208L19.3149 22.038C19.633 22.356 20.1488 22.356 20.4669 22.038C20.779 21.7258 20.7848 21.2233 20.4843 20.9041L25.6451 16.0469C26.1819 15.8373 28.0845 15.0885 30.016 14.2599C34.8303 12.1948 35.1354 11.6597 35.3177 11.34C36.0085 10.1286 36.1818 8.58655 35.8055 6.99791ZM4.23751 33.958C3.64267 34.5179 2.65229 34.5027 2.07472 33.9251C1.49714 33.3476 1.48215 32.3572 2.04181 31.7624L15.1314 17.8546L18.1453 20.8685L4.23751 33.958ZM19.3321 19.7514L16.2484 16.6677L20.6722 11.9674L21.5851 12.8802C21.5907 12.886 21.5965 12.8919 21.6023 12.8975L23.1043 14.3994C23.1088 14.404 23.1133 14.4085 23.1178 14.4129L24.0326 15.3276L19.3321 19.7514ZM33.9238 10.4955C33.3462 11.076 29.1732 12.9165 25.4022 14.3934L24.9246 13.9159L29.7429 10.2833C30.1021 10.0125 30.1738 9.50167 29.903 9.14246C29.6322 8.78351 29.1215 8.71175 28.7622 8.98241L23.7615 12.7527L23.2472 12.2384L27.0174 7.23771C27.2882 6.87851 27.2165 6.36772 26.8573 6.09689C26.4981 5.82615 25.9873 5.89782 25.7166 6.25695L22.084 11.0752L21.5855 10.5767C23.0958 6.79192 24.9572 2.63583 25.5404 2.05646C27.374 1.07285 30.1528 1.81358 32.1696 3.83033C34.2055 5.8663 34.9382 8.66084 33.9238 10.4955Z" fill="white"/>
</g>
<defs>
<clipPath id="clip0_77_1224">
<rect width="36" height="36" fill="white"/>
</clipPath>
</defs>
</svg>
