<svg width="36" height="36" viewBox="0 0 36 36" fill="none" xmlns="http://www.w3.org/2000/svg">
<g clip-path="url(#clip0_77_1238)">
<path d="M22.2 31.2H13.8C13.44 31.2 13.2001 31.4399 13.2001 31.7999C13.2001 32.1599 13.44 32.3999 13.8 32.3999H22.2C22.56 32.3999 22.8 32.1599 22.8 31.7999C22.8 31.4399 22.56 31.2 22.2 31.2Z" fill="white"/>
<path d="M22.2 28.7999H13.8C13.44 28.7999 13.2001 29.0399 13.2001 29.3999C13.2001 29.7599 13.44 29.9999 13.8 29.9999H22.2C22.56 29.9999 22.8 29.7599 22.8 29.3999C22.8001 29.04 22.56 28.7999 22.2 28.7999Z" fill="white"/>
<path d="M24.4668 12.6485C24.0523 8.86405 22.6691 4.7497 18.4201 0.179998C18.3 0.0599753 18.18 0 18 0C17.82 0 17.7 0.0599753 17.58 0.179998C13.3595 4.4005 11.9935 8.62101 11.5695 12.625C9.55071 13.9564 8.40002 16.1903 8.40002 18.54V28.1999C8.40002 32.5199 11.88 35.9999 16.2 35.9999H19.8001C24.1201 35.9999 27.6001 32.5199 27.6001 28.1999V18.54C27.6 16.146 26.4633 13.9796 24.4668 12.6485ZM18 1.50003C20.7876 4.61739 22.1526 7.48012 22.8133 10.2006C22.8088 10.2005 22.8045 10.2 22.8 10.2C22.44 10.2 22.2 10.5 22.2 10.8C22.2 11.16 22.44 11.4 22.8 11.4C22.8935 11.4 22.9788 11.3834 23.0541 11.3531C23.2234 12.3096 23.3165 13.2502 23.3652 14.1796C23.2869 13.9456 23.08 13.7999 22.8 13.7999C22.44 13.7999 22.2 14.0999 22.2 14.3999C22.2 14.7599 22.44 14.9998 22.8 14.9998C23.1042 14.9998 23.3221 14.828 23.3825 14.5576C23.3897 14.7362 23.3955 14.9144 23.3999 15.0923V17.9998V18.0598C23.3999 18.5998 23.3999 19.1998 23.3999 19.7398V20.2798C23.3999 20.6091 23.3626 20.929 23.294 21.2365C23.1906 21.0878 23.0174 20.9998 22.8 20.9998C22.44 20.9998 22.2 21.2998 22.2 21.5998C22.2 21.9598 22.44 22.1997 22.8 22.1997C22.8586 22.1997 22.9136 22.1927 22.9653 22.1806C22.9078 22.2988 22.8455 22.4143 22.7779 22.5261C22.6701 22.7042 22.5498 22.8737 22.4181 23.0335C22.3742 23.0868 22.3291 23.139 22.2827 23.19C22.2529 23.2228 22.2218 23.2543 22.1911 23.2862C22.1455 22.9904 21.9206 22.7998 21.6 22.7998C21.24 22.7998 21.0001 23.0998 21.0001 23.3997C21.0001 23.671 21.1365 23.874 21.3576 23.9577C20.6978 24.3649 19.9184 24.5998 19.0801 24.5998H16.9201C16.0817 24.5998 15.3024 24.3649 14.6425 23.9577C14.8637 23.874 15.0001 23.671 15.0001 23.3997C15.0001 23.0398 14.7601 22.7998 14.4001 22.7998C14.085 22.7998 13.8618 23.0297 13.8111 23.2883C13.7796 23.2558 13.7479 23.2235 13.7175 23.1901C13.6711 23.139 13.626 23.0869 13.5821 23.0336C13.4504 22.8738 13.3301 22.7043 13.2223 22.5261C13.1546 22.4143 13.0923 22.2989 13.0349 22.1807C13.0865 22.1929 13.1416 22.1998 13.2002 22.1998C13.5602 22.1998 13.8002 21.9598 13.8002 21.5998C13.8002 21.2398 13.5602 20.9999 13.2002 20.9999C12.9858 20.9999 12.8145 21.1066 12.7106 21.2561C12.6392 20.9425 12.6002 20.6162 12.6002 20.2799V19.7399C12.6002 19.3199 12.6002 18.8399 12.6002 18.3599V17.9999V15.4962C12.6067 15.1999 12.6388 14.781 12.6522 14.4818C12.7259 14.7259 12.9133 14.9999 13.2003 14.9999C13.5603 14.9999 13.8002 14.7599 13.8002 14.3999C13.8002 14.0399 13.5603 13.8 13.2003 13.8C12.9387 13.8 12.7411 13.9585 12.6522 14.1602C12.7055 13.238 12.7997 12.303 12.9606 11.3588C13.0323 11.3855 13.1126 11.4 13.2002 11.4C13.5602 11.4 13.8002 11.16 13.8002 10.8C13.8002 10.44 13.5602 10.2 13.2002 10.2C13.1975 10.2 13.195 10.2004 13.1923 10.2005C13.8538 7.33636 15.2181 4.40293 18 1.50003ZM26.4 28.2C26.4 31.86 23.46 34.8 19.8 34.8H16.2C12.54 34.8 9.59996 31.86 9.59996 28.2V18.54C9.59996 16.92 10.26 15.36 11.3999 14.28C11.3999 14.28 11.3999 15.1017 11.3999 15.4931C11.3799 16.4667 11.3899 17.4235 11.3999 18.36C11.3999 18.84 11.3999 19.2599 11.3999 19.74V20.28C11.3999 20.8537 11.4864 21.4063 11.6471 21.9257C11.781 22.3584 11.9665 22.768 12.1964 23.1473C12.2424 23.2232 12.2901 23.2979 12.3397 23.3712C12.4386 23.518 12.5445 23.6597 12.6568 23.7959C12.7129 23.864 12.7706 23.9307 12.83 23.996C12.9486 24.1265 13.0734 24.2513 13.2039 24.3699C13.3997 24.5479 13.6085 24.7118 13.8287 24.8602C14.7094 25.4541 15.7725 25.8 16.92 25.8H19.0799C21.5662 25.8 23.6564 24.176 24.3528 21.9257C24.5134 21.4063 24.5999 20.8537 24.5999 20.28V19.74C24.5999 19.2 24.5999 18.5999 24.5999 18.0599C24.6268 16.8915 24.6504 15.693 24.5999 14.4598V14.2799C25.74 15.42 26.3999 16.9199 26.3999 18.5399L26.4 28.2Z" fill="white"/>
</g>
<defs>
<clipPath id="clip0_77_1238">
<rect width="36" height="36" fill="white"/>
</clipPath>
</defs>
</svg>
