<svg width="20" height="21" viewBox="0 0 20 21" fill="none" xmlns="http://www.w3.org/2000/svg">
<path d="M18.8889 3.15C19.1836 3.15 19.4662 3.26062 19.6746 3.45754C19.8829 3.65445 20 3.92152 20 4.2C20 4.47848 19.8829 4.74555 19.6746 4.94246C19.4662 5.13937 19.1836 5.25 18.8889 5.25H17.7778L17.7744 5.32455L16.7378 19.0491C16.6979 19.5789 16.447 20.0748 16.0357 20.4368C15.6244 20.7987 15.0832 21 14.5211 21H5.47778C4.91571 21 4.37452 20.7987 3.96321 20.4368C3.55189 20.0748 3.30102 19.5789 3.26111 19.0491L2.22444 5.3256C2.22276 5.30043 2.22202 5.27522 2.22222 5.25H1.11111C0.816426 5.25 0.533811 5.13937 0.325437 4.94246C0.117063 4.74555 0 4.47848 0 4.2C0 3.92152 0.117063 3.65445 0.325437 3.45754C0.533811 3.26062 0.816426 3.15 1.11111 3.15H18.8889ZM12.2222 0C12.5169 0 12.7995 0.110625 13.0079 0.307538C13.2163 0.504451 13.3333 0.771523 13.3333 1.05C13.3333 1.32848 13.2163 1.59555 13.0079 1.79246C12.7995 1.98938 12.5169 2.1 12.2222 2.1H7.77778C7.48309 2.1 7.20048 1.98938 6.9921 1.79246C6.78373 1.59555 6.66667 1.32848 6.66667 1.05C6.66667 0.771523 6.78373 0.504451 6.9921 0.307538C7.20048 0.110625 7.48309 0 7.77778 0H12.2222Z" fill="#B41854"/>
</svg>
