<svg width="21" height="20" viewBox="0 0 21 20" fill="none" xmlns="http://www.w3.org/2000/svg">
<path d="M14.3922 1.04822C15.0632 0.377149 15.9733 9.37769e-05 16.9223 1.749e-08C17.8714 -9.3742e-05 18.7815 0.376781 19.4527 1.04772C20.1238 1.71865 20.5009 2.62869 20.501 3.57763C20.5011 4.52657 20.1242 5.43668 19.4532 6.10774L18.5612 7.00066L13.5012 1.94013L14.3922 1.04822ZM12.4412 3.00103L2.44132 12.9991C2.03511 13.4053 1.74953 13.9162 1.61632 14.475L0.521332 19.0765C0.491684 19.2012 0.494464 19.3313 0.529406 19.4546C0.564349 19.5778 0.630289 19.6901 0.720938 19.7806C0.811588 19.8712 0.923923 19.937 1.04723 19.9718C1.17054 20.0066 1.30071 20.0092 1.42532 19.9795L6.02629 18.8836C6.58547 18.7505 7.09676 18.465 7.50327 18.0586L17.5012 8.06056L12.4412 3.00103Z" fill="#B41854"/>
</svg>
