<svg width="21" height="20" viewBox="0 0 21 20" fill="none" xmlns="http://www.w3.org/2000/svg">
<path d="M10.451 16C10.801 16 11.097 15.879 11.339 15.637C11.581 15.395 11.7016 15.0993 11.701 14.75C11.701 14.4 11.5803 14.104 11.339 13.862C11.0976 13.62 10.8016 13.4993 10.451 13.5C10.101 13.5 9.80531 13.621 9.56398 13.863C9.32264 14.105 9.20164 14.4007 9.20098 14.75C9.20098 15.1 9.32198 15.396 9.56398 15.638C9.80597 15.88 10.1016 16.0007 10.451 16ZM9.55098 12.15H11.401C11.401 11.6 11.4636 11.1667 11.589 10.85C11.7143 10.5333 12.0683 10.1 12.651 9.55C13.0843 9.11667 13.426 8.704 13.676 8.312C13.926 7.92 14.051 7.44933 14.051 6.9C14.051 5.96667 13.7093 5.25 13.026 4.75C12.3426 4.25 11.5343 4 10.601 4C9.65098 4 8.87998 4.25 8.28798 4.75C7.69598 5.25 7.28364 5.85 7.05098 6.55L8.70098 7.2C8.78431 6.9 8.97198 6.575 9.26398 6.225C9.55597 5.875 10.0016 5.7 10.601 5.7C11.1343 5.7 11.5343 5.846 11.801 6.138C12.0676 6.43 12.201 6.75067 12.201 7.1C12.201 7.43333 12.101 7.746 11.901 8.038C11.701 8.33 11.451 8.60067 11.151 8.85C10.4176 9.5 9.96764 9.99166 9.80098 10.325C9.63431 10.6583 9.55098 11.2667 9.55098 12.15ZM10.501 20C9.11764 20 7.81764 19.7373 6.60098 19.212C5.38431 18.6867 4.32598 17.9743 3.42598 17.075C2.52598 16.175 1.81364 15.1167 1.28898 13.9C0.76431 12.6833 0.501643 11.3833 0.500977 10C0.500977 8.61667 0.763643 7.31667 1.28898 6.1C1.81431 4.88333 2.52664 3.825 3.42598 2.925C4.32598 2.025 5.38431 1.31267 6.60098 0.788C7.81764 0.263333 9.11764 0.000666667 10.501 0C11.8843 0 13.1843 0.262667 14.401 0.788C15.6176 1.31333 16.676 2.02567 17.576 2.925C18.476 3.825 19.1886 4.88333 19.714 6.1C20.2393 7.31667 20.5016 8.61667 20.501 10C20.501 11.3833 20.2383 12.6833 19.713 13.9C19.1876 15.1167 18.4753 16.175 17.576 17.075C16.676 17.975 15.6176 18.6877 14.401 19.213C13.1843 19.7383 11.8843 20.0007 10.501 20Z" fill="#B41854"/>
</svg>
