<svg width="19" height="20" viewBox="0 0 19 20" fill="none" xmlns="http://www.w3.org/2000/svg">
<path fill-rule="evenodd" clip-rule="evenodd" d="M7.93604 0.0687497C9.8264 -0.356759 11.1976 1.26791 11.1976 2.87426V17.1257C11.1976 18.7321 9.8264 20.3568 7.93604 19.9313C3.39389 18.9092 0 14.8516 0 10C0 5.14839 3.39389 1.09078 7.93604 0.0687497ZM13.5318 6.22641C13.7227 6.03557 13.9816 5.92836 14.2515 5.92836C14.5214 5.92836 14.7803 6.03557 14.9712 6.22641L18.0251 9.2803C18.2159 9.4712 18.3231 9.73007 18.3231 10C18.3231 10.2699 18.2159 10.5288 18.0251 10.7197L14.9712 13.7736C14.7792 13.959 14.5221 14.0616 14.2551 14.0593C13.9882 14.057 13.7329 13.9499 13.5442 13.7612C13.3554 13.5725 13.2484 13.3171 13.2461 13.0502C13.2438 12.7833 13.3464 12.5262 13.5318 12.3342L14.848 11.018H6.10778C5.8378 11.018 5.57888 10.9107 5.38797 10.7198C5.19707 10.5289 5.08982 10.27 5.08982 10C5.08982 9.73002 5.19707 9.4711 5.38797 9.28019C5.57888 9.08929 5.8378 8.98204 6.10778 8.98204H14.848L13.5318 7.66581C13.3409 7.47491 13.2337 7.21604 13.2337 6.94611C13.2337 6.67618 13.3409 6.41731 13.5318 6.22641Z" fill="#B41854"/>
</svg>
