<svg width="23" height="22" viewBox="0 0 23 22" fill="none" xmlns="http://www.w3.org/2000/svg">
<ellipse cx="17.55" cy="16.958" rx="4.12567" ry="4.125" fill="#B41854"/>
<rect x="1.50684" y="2.75" width="18.3363" height="15.5833" fill="#B41854"/>
<path d="M20.2203 12.737V3.34003C20.2203 2.32934 19.3978 1.507 18.3869 1.507H16.5246V0.612204C16.5246 0.27531 16.2529 0 15.9123 0C15.5753 0 15.3 0.271667 15.3 0.612204V1.51059H5.50654V0.615846C5.50654 0.278952 5.23478 0.0036424 4.89424 0.0036424C4.5537 0.0036424 4.28188 0.27531 4.28188 0.615846V1.51064H2.42317C1.41232 1.51064 0.589844 2.33299 0.589844 3.34367V17.776C0.589844 18.7867 1.41232 19.6091 2.42317 19.6091H13.3109C14.1949 21.0436 15.7746 22 17.5753 22C20.3398 22 22.5898 19.754 22.5898 16.9863C22.5898 15.1931 21.6405 13.621 20.2203 12.737ZM1.81086 3.34003C1.81086 3.00313 2.08258 2.72782 2.42317 2.72782H4.28547V3.72405C4.28547 4.06094 4.55724 4.33625 4.89777 4.33625C5.23472 4.33625 5.51008 4.06459 5.51008 3.72405V2.72782H15.3108V3.72405C15.3108 4.06094 15.5826 4.33625 15.9231 4.33625C16.2601 4.33625 16.5354 4.06459 16.5354 3.72405V2.72782H18.3977C18.7347 2.72782 19.01 2.99955 19.01 3.34003V5.55707H1.81086V3.34003ZM12.7674 18.3919L2.42681 18.3882C2.08986 18.3882 1.81451 18.1166 1.81451 17.776V6.78512H19.0029V12.1864C18.5536 12.0524 18.0717 11.9799 17.579 11.9799C14.8145 11.9799 12.5645 14.2259 12.5645 16.9936C12.5645 17.479 12.637 17.9499 12.7674 18.3919ZM17.5753 20.7792C15.4848 20.7792 13.7819 19.0766 13.7819 16.9863C13.7819 14.8961 15.4848 13.1935 17.5753 13.1935C19.6659 13.1935 21.3688 14.8961 21.3688 16.9863C21.3688 19.0766 19.6659 20.7792 17.5753 20.7792Z" fill="white"/>
<path d="M19.6357 15.4723C19.3929 15.2332 19.0016 15.2332 18.7661 15.4723L17.0342 17.2039L16.3857 16.5554C16.1465 16.3163 15.7625 16.3163 15.5197 16.5554C15.2805 16.7945 15.2805 17.1785 15.5197 17.4213L16.603 18.5044C16.9146 18.8123 17.353 18.6167 17.469 18.5044L19.6357 16.3381C19.8748 16.099 19.8748 15.715 19.6357 15.4723Z" fill="white"/>
</svg>
